<svg width="49" height="49" viewBox="0 0 49 49" fill="none" xmlns="http://www.w3.org/2000/svg">
<path d="M29.2218 19.7029C30.702 19.7029 32.1489 19.2639 33.3797 18.4416C34.6104 17.6192 35.5697 16.4504 36.1361 15.0829C36.7026 13.7153 36.8508 12.2106 36.562 10.7588C36.2732 9.30706 35.5604 7.97354 34.5138 6.92688C33.4671 5.88022 32.1336 5.16744 30.6818 4.87867C29.2301 4.5899 27.7253 4.73811 26.3578 5.30455C24.9903 5.871 23.8214 6.83024 22.9991 8.06098C22.1767 9.29172 21.7378 10.7387 21.7378 12.2189" stroke="black" stroke-linecap="round" stroke-linejoin="round"/>
<path d="M37.0116 19.7028C37.0116 17.6368 36.1909 15.6554 34.73 14.1945C33.2691 12.7336 31.2877 11.9128 29.2216 11.9128C27.1556 11.9128 25.1742 12.7336 23.7133 14.1945C22.2524 15.6554 21.4316 17.6368 21.4316 19.7028C21.4316 23.0078 23.4986 25.8158 26.4046 26.9468V40.0888L29.2216 43.7348L32.0396 40.0888V26.9468C34.9446 25.8158 37.0116 23.0078 37.0116 19.7028Z" stroke="black" stroke-linecap="round" stroke-linejoin="round"/>
<path d="M19.8368 25.0688L12.0738 32.8318L11.4878 37.4018L16.0578 36.8168L23.8218 29.0528" stroke="black" stroke-linecap="round" stroke-linejoin="round"/>
</svg>
