<svg width="92" height="90" viewBox="0 0 92 90" fill="none" xmlns="http://www.w3.org/2000/svg">
<path d="M46.0005 43.4209C51.572 43.4209 56.0885 39.0025 56.0885 33.5522C56.0885 28.1019 51.572 23.6836 46.0005 23.6836C40.4291 23.6836 35.9126 28.1019 35.9126 33.5522C35.9126 39.0025 40.4291 43.4209 46.0005 43.4209Z" stroke="#004877" stroke-width="6" stroke-linecap="round" stroke-linejoin="round"/>
<path d="M66.1765 73.4217C64.8973 48.9988 27.1039 48.9988 25.8247 73.4217" stroke="#004877" stroke-width="6" stroke-linecap="round" stroke-linejoin="round"/>
<path d="M36.7719 11.9993C39.1164 10.0453 40.2906 9.06631 41.5173 8.49392C42.9172 7.8396 44.449 7.5 46.0004 7.5C47.5518 7.5 49.0836 7.8396 50.4835 8.49392C51.7102 9.06631 52.8844 10.0453 55.2288 11.9993C57.6459 14.0125 60.0993 15.0309 63.3274 15.2796C66.3982 15.5204 67.9356 15.6428 69.2188 16.0849C72.1806 17.1112 74.513 19.3889 75.5581 22.2903C76.01 23.5416 76.1351 25.0456 76.3812 28.0536C76.6355 31.2115 77.6725 33.6076 79.7304 35.9722C81.7319 38.2656 82.7326 39.4143 83.3177 40.6144C84.6735 43.3894 84.6735 46.6145 83.3177 49.3856C82.7326 50.5857 81.7319 51.7344 79.7345 54.0278C77.7365 56.2238 76.5549 59.0154 76.3812 61.9504C76.1351 64.9544 76.01 66.4584 75.5581 67.7137C75.0407 69.1449 74.2025 70.4446 73.1049 71.5177C72.0073 72.5908 70.6781 73.4099 69.2148 73.9151C67.9356 74.3572 66.3982 74.4796 63.3234 74.7204C60.0953 74.9691 57.6459 75.9836 55.2288 77.9968C52.8844 79.9547 51.7102 80.9337 50.4835 81.5061C49.0836 82.1604 47.5518 82.5 46.0004 82.5C44.449 82.5 42.9172 82.1604 41.5173 81.5061C40.2906 80.9337 39.1164 79.9547 36.7719 78.0007C34.5272 76.0461 31.6735 74.8903 28.6733 74.7204C25.6026 74.4796 24.0652 74.3572 22.782 73.9151C21.319 73.409 19.9903 72.5891 18.8934 71.5153C17.7965 70.4415 16.9591 69.1412 16.4427 67.7097C15.9908 66.4584 15.8657 64.9544 15.6195 61.9464C15.4464 59.0133 14.2663 56.2231 12.2703 54.0278C10.2689 51.7344 9.26817 50.5857 8.67903 49.3856C8.0108 48.0159 7.66434 46.5173 7.66504 44.9996C7.66574 43.4818 8.01358 41.9835 8.68307 40.6144C9.26817 39.4143 10.2689 38.2656 12.2663 35.9722C14.3646 33.5603 15.3694 31.1444 15.6195 28.0496C15.8657 25.0456 15.9908 23.5416 16.4427 22.2863C16.96 20.8551 17.7983 19.5554 18.8959 18.4823C19.9935 17.4092 21.3227 16.5901 22.786 16.0849C24.0652 15.6428 25.6026 15.5204 28.6774 15.2796C31.6757 15.1103 34.5278 13.9519 36.7719 11.9993Z" stroke="#004877" stroke-width="6" stroke-linecap="round" stroke-linejoin="round"/>
</svg>
