<svg width="49" height="49" viewBox="0 0 49 49" fill="none" xmlns="http://www.w3.org/2000/svg">
<path d="M40.515 20.8579V17.6979L36.35 20.4999H25.967C22.832 20.4999 20.267 23.0649 20.267 26.1999V34.3229C20.267 37.4569 22.832 40.0229 25.967 40.0229H38.55C41.685 40.0229 44.25 37.4579 44.25 34.3229V26.1999C44.25 23.7559 42.688 21.6639 40.515 20.8579Z" stroke="black" stroke-linecap="round" stroke-linejoin="round"/>
<path d="M8.985 27.6119V30.7719L13.15 27.9699H23.533C26.668 27.9699 29.233 25.4049 29.233 22.2699V14.1479C29.233 11.0129 26.668 8.44788 23.533 8.44788H10.95C7.815 8.44788 5.25 11.0129 5.25 14.1479V22.2699C5.25 24.7139 6.812 26.8059 8.985 27.6119Z" stroke="black" stroke-linecap="round" stroke-linejoin="round"/>
</svg>
