<svg width="31" height="31" viewBox="0 0 31 31" fill="none" xmlns="http://www.w3.org/2000/svg">
<path d="M22.2812 5.98831C21.7946 5.98763 21.314 6.09615 20.875 6.30589V5.51956C20.8753 4.73751 20.5962 3.98107 20.0881 3.38655C19.5801 2.79203 18.8763 2.39853 18.1038 2.27696C17.3312 2.15539 16.5407 2.31374 15.8746 2.72348C15.2084 3.13322 14.7106 3.76741 14.4707 4.51175C13.971 4.24072 13.4095 4.10415 12.8411 4.11543C12.2728 4.12671 11.7171 4.28544 11.2286 4.57609C10.74 4.86673 10.3354 5.2793 10.0543 5.77339C9.77315 6.26747 9.62522 6.82611 9.62496 7.39456V14.8946L9.1773 14.1762C8.7425 13.4258 8.02831 12.8781 7.19086 12.6528C6.35341 12.4274 5.46081 12.5428 4.70816 12.9736C3.95551 13.4045 3.40404 14.1158 3.17427 14.952C2.9445 15.7882 3.05514 16.6814 3.48199 17.4364C5.35699 21.3938 6.87223 24.2004 8.60543 25.9547C10.3562 27.7313 12.3437 28.4883 15.25 28.4883C17.9841 28.4852 20.6053 27.3977 22.5386 25.4644C24.4719 23.5311 25.5594 20.9099 25.5625 18.1758V9.26956C25.5625 8.39932 25.2168 7.56472 24.6014 6.94937C23.9861 6.33402 23.1515 5.98831 22.2812 5.98831ZM23.6875 18.1758C23.685 20.4128 22.7952 22.5575 21.2134 24.1393C19.6316 25.7211 17.487 26.6108 15.25 26.6133C12.8617 26.6133 11.323 26.0414 9.93785 24.6387C8.38746 23.0672 6.96012 20.4024 5.16012 16.6032C5.14957 16.5799 5.13784 16.5572 5.12496 16.5352C4.93848 16.2121 4.88798 15.8282 4.98457 15.4679C5.08116 15.1076 5.31692 14.8004 5.64 14.6139C5.96308 14.4274 6.347 14.3769 6.70731 14.4735C7.06762 14.5701 7.37481 14.8059 7.56129 15.1289C7.56606 15.1383 7.57155 15.1473 7.5777 15.1559L9.76559 18.6715C9.87306 18.8449 10.0342 18.9786 10.2245 19.0521C10.4148 19.1257 10.6239 19.1351 10.8201 19.0791C11.0163 19.023 11.1888 18.9045 11.3115 18.7414C11.4342 18.5784 11.5004 18.3798 11.5 18.1758V7.39456C11.5 7.0216 11.6481 6.66392 11.9118 6.40019C12.1756 6.13647 12.5333 5.98831 12.9062 5.98831C13.2792 5.98831 13.6369 6.13647 13.9006 6.40019C14.1643 6.66392 14.3125 7.0216 14.3125 7.39456V14.4258C14.3125 14.6745 14.4112 14.9129 14.587 15.0887C14.7629 15.2645 15.0013 15.3633 15.25 15.3633C15.4986 15.3633 15.7371 15.2645 15.9129 15.0887C16.0887 14.9129 16.1875 14.6745 16.1875 14.4258V5.51956C16.1875 5.1466 16.3356 4.78892 16.5993 4.52519C16.8631 4.26147 17.2208 4.11331 17.5937 4.11331C17.9667 4.11331 18.3244 4.26147 18.5881 4.52519C18.8518 4.78892 19 5.1466 19 5.51956V14.4258C19 14.6745 19.0987 14.9129 19.2745 15.0887C19.4504 15.2645 19.6888 15.3633 19.9375 15.3633C20.1861 15.3633 20.4246 15.2645 20.6004 15.0887C20.7762 14.9129 20.875 14.6745 20.875 14.4258V9.26956C20.875 8.8966 21.0231 8.53892 21.2868 8.27519C21.5506 8.01147 21.9083 7.86331 22.2812 7.86331C22.6542 7.86331 23.0119 8.01147 23.2756 8.27519C23.5393 8.53892 23.6875 8.8966 23.6875 9.26956V18.1758Z" fill="black"/>
</svg>
