<svg width="90" height="90" viewBox="0 0 90 90" fill="none" xmlns="http://www.w3.org/2000/svg">
<path d="M31.875 15C30.3976 15 28.9347 15.291 27.5698 15.8564C26.2049 16.4217 24.9647 17.2504 23.92 18.295C22.8754 19.3397 22.0467 20.5799 21.4814 21.9448C20.916 23.3097 20.625 24.7726 20.625 26.25C20.625 27.7274 20.916 29.1903 21.4814 30.5552C22.0467 31.9201 22.8754 33.1603 23.92 34.205C24.9647 35.2496 26.2049 36.0783 27.5698 36.6436C28.9347 37.209 30.3976 37.5 31.875 37.5C34.8587 37.5 37.7202 36.3147 39.8299 34.205C41.9397 32.0952 43.125 29.2337 43.125 26.25C43.125 23.2663 41.9397 20.4048 39.8299 18.295C37.7202 16.1853 34.8587 15 31.875 15ZM13.125 26.25C13.125 21.2772 15.1004 16.5081 18.6167 12.9917C22.1331 9.47544 26.9022 7.5 31.875 7.5C36.8478 7.5 41.6169 9.47544 45.1332 12.9917C48.6496 16.5081 50.625 21.2772 50.625 26.25C50.625 31.2228 48.6496 35.9919 45.1332 39.5083C41.6169 43.0246 36.8478 45 31.875 45C26.9022 45 22.1331 43.0246 18.6167 39.5083C15.1004 35.9919 13.125 31.2228 13.125 26.25ZM77.1487 21.18L79.0125 24.4312C81.2979 28.4112 82.4999 32.9209 82.4986 37.5104C82.4973 42.0999 81.2927 46.6088 79.005 50.5875L77.1337 53.8388L70.635 50.1L72.5025 46.8488C74.1368 44.0071 74.9975 40.7866 74.9988 37.5085C75.0001 34.2304 74.142 31.0092 72.51 28.1663L70.6425 24.915L77.1487 21.18ZM65.7675 27.7125L67.6312 30.9675C68.7742 32.9569 69.3756 35.2112 69.3756 37.5056C69.3756 39.8 68.7742 42.0543 67.6312 44.0438L65.7562 47.295L59.2575 43.5562L61.125 40.305C61.6156 39.4522 61.8738 38.4857 61.8738 37.5019C61.8738 36.5181 61.6156 35.5515 61.125 34.6988L59.2612 31.4475L65.7675 27.7125ZM0 71.25C0 66.2772 1.97544 61.5081 5.49175 57.9917C9.00805 54.4754 13.7772 52.5 18.75 52.5H45C49.9728 52.5 54.7419 54.4754 58.2582 57.9917C61.7746 61.5081 63.75 66.2772 63.75 71.25V78.75H56.25V71.25C56.25 68.2663 55.0647 65.4048 52.9549 63.295C50.8452 61.1853 47.9837 60 45 60H18.75C15.7663 60 12.9048 61.1853 10.795 63.295C8.68526 65.4048 7.5 68.2663 7.5 71.25V78.75H0V71.25Z" fill="#004877"/>
</svg>
