<svg width="90" height="90" viewBox="0 0 90 90" fill="none" xmlns="http://www.w3.org/2000/svg">
<path d="M78.75 60V15H11.25V60H78.75ZM78.75 7.5C80.7391 7.5 82.6468 8.29018 84.0533 9.6967C85.4598 11.1032 86.25 13.0109 86.25 15V60C86.25 61.9891 85.4598 63.8968 84.0533 65.3033C82.6468 66.7098 80.7391 67.5 78.75 67.5H52.5V75H60V82.5H30V75H37.5V67.5H11.25C9.26088 67.5 7.35322 66.7098 5.9467 65.3033C4.54018 63.8968 3.75 61.9891 3.75 60V15C3.75 10.8375 7.0875 7.5 11.25 7.5H78.75ZM18.75 22.5H52.5V41.25H18.75V22.5ZM56.25 22.5H71.25V30H56.25V22.5ZM71.25 33.75V52.5H56.25V33.75H71.25ZM18.75 45H33.75V52.5H18.75V45ZM37.5 45H52.5V52.5H37.5V45Z" fill="#004877"/>
</svg>
