<svg width="93" height="75" viewBox="0 0 93 75" fill="none" xmlns="http://www.w3.org/2000/svg">
<path d="M39.5541 9.46289L32.1286 16.9482C29.9053 17.5635 27.8419 18.6914 26.0981 20.2441L22.2328 23.7158C20.7506 25.0488 18.818 25.7812 16.8272 25.7812H13.95V44.5312C16.9144 44.6191 19.7334 45.835 21.8405 47.959L27.0136 53.1738L28.0308 54.1992L31.9542 58.1543C32.8552 59.0625 34.3373 59.0625 35.2383 58.1543C35.4853 57.9053 35.6742 57.6123 35.7759 57.3047C36.1828 56.1768 37.1273 55.3271 38.2898 55.0635C39.4523 54.7998 40.673 55.1514 41.5158 56.0156L43.0852 57.5684C44.7708 59.2676 47.5027 59.2676 49.1738 57.5684C49.9584 56.7773 50.3798 55.7666 50.4234 54.7266C50.4816 53.4375 51.2372 52.2949 52.3997 51.7383C53.5622 51.1816 54.9136 51.2988 55.9453 52.0459C57.3113 53.0273 59.2148 52.8955 60.4355 51.665C61.8014 50.2881 61.8014 48.0615 60.4355 46.6992L49.4208 35.5957L44.2186 40.4297C40.2516 44.1211 34.163 44.1797 30.1233 40.5615C25.5169 36.4307 25.4152 29.2236 29.8908 24.9609L40.0772 15.2637C44.0588 11.4844 49.3191 9.375 54.7973 9.375C60.0431 9.375 65.1145 11.3232 69.0234 14.8242L73.3973 18.75H90.675C91.9538 18.75 93 19.8047 93 21.0937V51.5625C93 54.1553 90.922 56.25 88.35 56.25H83.7C81.9853 56.25 80.4741 55.3125 79.6748 53.9062H67.3378C66.8438 54.8877 66.1898 55.8252 65.3761 56.6455C62.8913 59.1504 59.4473 60.1318 56.2214 59.5898C55.6983 60.6592 54.9862 61.6553 54.0998 62.5488C50.1328 66.5478 43.928 66.9434 39.5105 63.7353C35.8631 66.7822 30.4284 66.5918 27.0136 63.1348L23.1047 59.1797L22.0875 58.1543L16.9144 52.9394C16.1152 52.1338 15.0689 51.665 13.95 51.5771C13.95 54.1553 11.8575 56.25 9.3 56.25H4.65C2.07797 56.25 0 54.1553 0 51.5625V21.0937C0 19.8047 1.04625 18.75 2.325 18.75H16.8272C17.1178 18.75 17.3939 18.6475 17.5973 18.457L21.4481 15C25.5023 11.3818 30.7191 9.375 36.1392 9.375H37.6359C38.2753 9.375 38.9292 9.4043 39.5541 9.46289ZM79.05 46.875V25.7812H72.075C71.2177 25.7812 70.3894 25.459 69.7645 24.8877L64.4025 20.083C61.7578 17.71 58.343 16.4062 54.7973 16.4062C51.1064 16.4062 47.5608 17.8271 44.8725 20.376L34.6861 30.0732C33.1894 31.5088 33.2184 33.9258 34.7588 35.3027C36.1102 36.5186 38.1591 36.4893 39.4814 35.2588L49.9294 25.5322C51.3389 24.2139 53.5477 24.3018 54.8555 25.7373C56.1633 27.1728 56.0761 29.3848 54.652 30.7031L54.5358 30.8203L65.347 41.7187C66.8002 43.1836 67.7447 44.9853 68.1661 46.8603H79.05V46.875ZM9.3 49.2187C9.3 48.5971 9.05505 48.001 8.61902 47.5615C8.183 47.1219 7.59163 46.875 6.975 46.875C6.35837 46.875 5.767 47.1219 5.33098 47.5615C4.89495 48.001 4.65 48.5971 4.65 49.2187C4.65 49.8403 4.89495 50.4365 5.33098 50.876C5.767 51.3156 6.35837 51.5625 6.975 51.5625C7.59163 51.5625 8.183 51.3156 8.61902 50.876C9.05505 50.4365 9.3 49.8403 9.3 49.2187ZM86.025 51.5625C86.6416 51.5625 87.233 51.3156 87.669 50.876C88.105 50.4365 88.35 49.8403 88.35 49.2187C88.35 48.5971 88.105 48.001 87.669 47.5615C87.233 47.1219 86.6416 46.875 86.025 46.875C85.4084 46.875 84.817 47.1219 84.381 47.5615C83.945 48.001 83.7 48.5971 83.7 49.2187C83.7 49.8403 83.945 50.4365 84.381 50.876C84.817 51.3156 85.4084 51.5625 86.025 51.5625Z" fill="#004877"/>
</svg>
