<svg width="31" height="31" viewBox="0 0 31 31" fill="none" xmlns="http://www.w3.org/2000/svg">
<path d="M7.125 10.3633C7.125 9.53448 7.45424 8.73962 8.04029 8.15357C8.62634 7.56752 9.4212 7.23828 10.25 7.23828C11.0788 7.23828 11.8737 7.56752 12.4597 8.15357C13.0458 8.73962 13.375 9.53448 13.375 10.3633C13.375 11.1921 13.0458 11.9869 12.4597 12.573C11.8737 13.159 11.0788 13.4883 10.25 13.4883C9.4212 13.4883 8.62634 13.159 8.04029 12.573C7.45424 11.9869 7.125 11.1921 7.125 10.3633ZM10.25 5.36328C8.92392 5.36328 7.65215 5.89007 6.71447 6.82775C5.77678 7.76543 5.25 9.0372 5.25 10.3633C5.25 11.6894 5.77678 12.9611 6.71447 13.8988C7.65215 14.8365 8.92392 15.3633 10.25 15.3633C11.5761 15.3633 12.8479 14.8365 13.7855 13.8988C14.7232 12.9611 15.25 11.6894 15.25 10.3633C15.25 9.0372 14.7232 7.76543 13.7855 6.82775C12.8479 5.89007 11.5761 5.36328 10.25 5.36328ZM19.625 11.6133C19.625 11.116 19.8225 10.6391 20.1742 10.2875C20.5258 9.93582 21.0027 9.73828 21.5 9.73828C21.9973 9.73828 22.4742 9.93582 22.8258 10.2875C23.1775 10.6391 23.375 11.116 23.375 11.6133C23.375 12.1106 23.1775 12.5875 22.8258 12.9391C22.4742 13.2907 21.9973 13.4883 21.5 13.4883C21.0027 13.4883 20.5258 13.2907 20.1742 12.9391C19.8225 12.5875 19.625 12.1106 19.625 11.6133ZM21.5 7.86328C20.5054 7.86328 19.5516 8.25837 18.8483 8.96163C18.1451 9.66489 17.75 10.6187 17.75 11.6133C17.75 12.6078 18.1451 13.5617 18.8483 14.2649C19.5516 14.9682 20.5054 15.3633 21.5 15.3633C22.4946 15.3633 23.4484 14.9682 24.1517 14.2649C24.8549 13.5617 25.25 12.6078 25.25 11.6133C25.25 10.6187 24.8549 9.66489 24.1517 8.96163C23.4484 8.25837 22.4946 7.86328 21.5 7.86328ZM18.06 24.1608C18.9387 24.517 20.065 24.7383 21.5012 24.7383C24.3538 24.7383 25.9838 23.867 26.8725 22.7908C27.3038 22.2683 27.5225 21.7408 27.635 21.337C27.6991 21.1031 27.7381 20.863 27.7512 20.6208V20.587C27.7512 20.2293 27.6808 19.8752 27.5439 19.5447C27.407 19.2142 27.2064 18.914 26.9535 18.661C26.7006 18.4081 26.4003 18.2075 26.0698 18.0706C25.7394 17.9337 25.3852 17.8633 25.0275 17.8633H17.975C17.94 17.8633 17.9062 17.8633 17.8725 17.8658C18.365 18.3783 18.7225 19.022 18.8925 19.7383H25.0275C25.4925 19.7383 25.87 20.112 25.8762 20.5745C25.8673 20.6642 25.8506 20.7528 25.8263 20.8395C25.749 21.1175 25.6126 21.3755 25.4263 21.5958C24.9888 22.1283 23.9613 22.8633 21.5012 22.8633C20.2762 22.8633 19.4062 22.6808 18.7887 22.432C18.6538 22.932 18.4313 23.5358 18.06 24.1608ZM5.5625 17.8633C4.81658 17.8633 4.10121 18.1596 3.57376 18.687C3.04632 19.2145 2.75 19.9299 2.75 20.6758V21.0233C2.75147 21.1102 2.75731 21.197 2.7675 21.2833C2.87072 22.2134 3.20504 23.1029 3.74 23.8708C4.7625 25.3308 6.715 26.6133 10.25 26.6133C13.785 26.6133 15.7375 25.332 16.76 23.8695C17.2951 23.1017 17.6294 22.2122 17.7325 21.282C17.7413 21.196 17.7472 21.1097 17.75 21.0233V20.6758C17.75 19.9299 17.4537 19.2145 16.9262 18.687C16.3988 18.1596 15.6834 17.8633 14.9375 17.8633H5.5625ZM4.625 20.997V20.6758C4.625 20.4271 4.72377 20.1887 4.89959 20.0129C5.0754 19.8371 5.31386 19.7383 5.5625 19.7383H14.9375C15.1861 19.7383 15.4246 19.8371 15.6004 20.0129C15.7762 20.1887 15.875 20.4271 15.875 20.6758V20.997L15.8663 21.097C15.795 21.7071 15.5743 22.2902 15.2238 22.7945C14.6075 23.6758 13.2775 24.7383 10.25 24.7383C7.2225 24.7383 5.8925 23.6758 5.275 22.7945C4.92487 22.2901 4.70461 21.707 4.63375 21.097C4.62996 21.0638 4.62704 21.0304 4.625 20.997Z" fill="black"/>
</svg>
