<svg width="31" height="31" viewBox="0 0 31 31" fill="none" xmlns="http://www.w3.org/2000/svg">
<g clip-path="url(#clip0_290_174)">
<path d="M23.275 3.569L23.7575 3.639C24.5075 3.75775 25.3475 3.9565 25.8638 4.47275C26.3813 4.99025 26.58 5.83025 26.6988 6.58025L26.7688 7.0615C26.9263 8.199 26.9675 9.69025 26.6988 11.3453C26.1688 14.6115 24.43 18.5078 20.0638 21.5265C20.0436 21.7497 20.0365 21.9738 20.0425 22.1978L20.0638 22.8765C20.0763 23.329 20.0688 23.7803 19.9438 24.214C19.7063 25.039 18.86 25.5828 18.0688 25.9728L17.6813 26.1565L17.1813 26.3765L16.84 26.514C15.9563 26.8515 14.89 27.0878 14.1925 26.389C13.8763 26.0728 13.73 25.6428 13.6125 25.2128L13.555 24.9978C13.355 24.239 13.1288 23.4853 12.8463 22.7553C12.7682 22.85 12.6856 22.941 12.5988 23.0278C11.9175 23.7078 10.9938 24.0503 10.07 24.3153L9.45626 24.484L8.84376 24.6465L8.24626 24.7965L7.70626 24.9215L7.06001 25.059L6.65626 25.1378C6.45484 25.1753 6.24731 25.1633 6.05159 25.1027C5.85588 25.042 5.67789 24.9346 5.53301 24.7898C5.38813 24.6449 5.28073 24.4669 5.22009 24.2712C5.15946 24.0755 5.14741 23.8679 5.18501 23.6665L5.32376 22.9778L5.48501 22.2553L5.64001 21.6178L5.92126 20.5615C6.20001 19.5365 6.53876 18.4803 7.29626 17.724L7.42001 17.6053L6.46626 17.2628L5.50751 16.9328C4.94626 16.7478 4.35626 16.5528 3.94876 16.1453C3.20376 15.4003 3.52001 14.2378 3.89126 13.324L4.09876 12.8403L4.27001 12.464C4.66626 11.6215 5.22876 10.6515 6.12376 10.394C6.55751 10.269 7.00751 10.2615 7.46126 10.2728L8.14001 10.2953C8.36501 10.299 8.59001 10.2953 8.81126 10.274C11.8288 5.90775 15.7263 4.169 18.9925 3.639C20.4088 3.40551 21.8518 3.38192 23.275 3.569ZM19.3925 6.1065C16.645 6.55275 13.3063 8.024 10.7013 11.9428C10.385 12.4178 9.85126 12.644 9.30751 12.7303C9.00001 12.7803 8.69001 12.7928 8.37876 12.7928L7.44501 12.779C7.29001 12.779 7.13376 12.779 6.97876 12.7865C6.59876 13.2915 6.33376 13.8915 6.13501 14.4878L8.01001 15.169L8.78126 15.4603C10.1913 16.0128 11.5563 16.6815 12.6063 17.7315C14.375 19.5003 15.2738 21.814 15.9238 24.1778C16.4938 23.9778 17.0663 23.7228 17.5513 23.359L17.5588 22.8928L17.545 21.9603C17.545 21.6503 17.5575 21.3403 17.6075 21.0303C17.6925 20.4865 17.92 19.9528 18.395 19.6365C22.3138 17.0315 23.785 13.6928 24.2313 10.9453C24.4563 9.55775 24.4188 8.31775 24.2925 7.404C24.244 7.02491 24.1633 6.65064 24.0513 6.28525C23.6858 6.17359 23.3116 6.0933 22.9325 6.04525C21.7558 5.89271 20.5631 5.91252 19.3925 6.1065ZM9.06251 19.4915C8.62501 20.0203 8.42126 20.714 8.25751 21.4015L8.12251 21.9865L8.05376 22.269L8.92126 22.0653C9.60876 21.9028 10.3038 21.6965 10.8313 21.259C11.0656 21.0245 11.1973 20.7064 11.1971 20.3748C11.197 20.0432 11.0652 19.7253 10.8306 19.4909C10.5961 19.2565 10.278 19.1249 9.94644 19.125C9.61485 19.1251 9.29689 19.257 9.06251 19.4915ZM16.1338 10.654C16.3659 10.4218 16.6414 10.2376 16.9447 10.1119C17.248 9.98622 17.5731 9.9215 17.9014 9.92144C18.2298 9.92138 18.5549 9.98599 18.8582 10.1116C19.1615 10.2372 19.4372 10.4213 19.6694 10.6534C19.9016 10.8855 20.0858 11.1611 20.2115 11.4644C20.3372 11.7677 20.4019 12.0927 20.4019 12.4211C20.402 12.7494 20.3374 13.0745 20.2118 13.3778C20.0862 13.6812 19.9021 13.9568 19.67 14.189C19.2011 14.6579 18.5651 14.9214 17.9019 14.9214C17.2387 14.9214 16.6027 14.6579 16.1338 14.189C15.6648 13.7201 15.4014 13.0841 15.4014 12.4209C15.4014 11.7577 15.6648 11.1217 16.1338 10.6528V10.654Z" fill="black"/>
</g>
<defs>
<clipPath id="clip0_290_174">
<rect width="30" height="30" fill="white" transform="translate(0.25 0.0727539)"/>
</clipPath>
</defs>
</svg>
