<svg width="39" height="39" viewBox="0 0 39 39" fill="none" xmlns="http://www.w3.org/2000/svg">
<g clip-path="url(#clip0_292_266)">
<path d="M19.4139 0.234874C20.0361 0.234874 20.6489 0.275249 21.2189 0.370249C21.7802 0.443809 22.3341 0.566189 22.8742 0.735999C23.4157 0.899874 23.9454 1.10412 24.475 1.36062C24.9904 1.60525 25.52 1.9045 26.0496 2.22987C26.945 2.79987 27.8261 3.26062 28.7239 3.62875C30.4912 4.3361 32.3601 4.75702 34.26 4.87562C35.2242 4.9445 36.2146 4.98487 37.2454 4.98487V14.4849C37.2454 16.2899 37.015 17.9999 36.5542 19.6291C36.1117 21.2351 35.4828 22.7839 34.6804 24.2437C33.8814 25.7016 32.936 27.0743 31.8589 28.3406C30.7652 29.6357 29.5811 30.8516 28.3154 31.9791C27.0329 33.11 25.6821 34.1609 24.2707 35.126C22.86 36.1045 21.435 37.0141 20.01 37.8406L19.44 38.1802L18.87 37.8406C17.4051 36.9925 15.9742 36.0869 14.5807 35.126C13.1614 34.1718 11.81 33.1203 10.5361 31.9791C9.27116 30.8516 8.08782 29.6357 6.99499 28.3406C5.92076 27.0689 4.97115 25.697 4.15924 24.2437C3.37058 22.7774 2.74232 21.2302 2.28537 19.6291C1.8217 17.9541 1.59309 16.2228 1.60612 14.4849V4.98487C2.63924 4.98487 3.62962 4.9445 4.59387 4.87562C5.54306 4.80969 6.48611 4.67395 7.41537 4.4695C8.32499 4.26525 9.23462 3.9945 10.13 3.62875C11.0591 3.25377 11.9499 2.79008 12.79 2.24412C13.835 1.56487 14.8942 1.06375 15.9392 0.733624C17.0647 0.388611 18.2368 0.220359 19.4139 0.234874ZM34.8561 7.3195C33.0583 7.23227 31.2772 6.9317 29.5504 6.42412C27.8326 5.91173 26.1965 5.15764 24.6911 4.1845C23.9103 3.67196 23.0623 3.26994 22.1712 2.98987C21.2812 2.72087 20.3555 2.58795 19.4257 2.59562C18.489 2.58957 17.5566 2.72243 16.6589 2.98987C15.7665 3.26084 14.9196 3.66349 14.1461 4.1845C12.6381 5.16294 10.9978 5.92034 9.27499 6.43362C7.59112 6.92287 5.82887 7.22212 3.98112 7.33137V14.4967C3.98112 16.0714 4.18537 17.5771 4.59387 19.0282C5.01003 20.4668 5.58349 21.855 6.30387 23.1679C7.03287 24.4944 7.89211 25.7451 8.86887 26.9014C9.85924 28.0675 10.9161 29.1529 12.0561 30.1836C13.1961 31.2167 14.3907 32.1667 15.64 33.0479C16.9011 33.9314 18.1646 34.7318 19.4257 35.4632C20.7171 34.7115 21.9761 33.9056 23.1996 33.0479C24.4571 32.1695 25.6581 31.2129 26.7954 30.1836C27.9354 29.1529 28.9946 28.0675 29.985 26.9014C30.9619 25.7451 31.8211 24.4945 32.55 23.1679C33.2672 21.8567 33.8321 20.4678 34.2339 19.0282C34.6548 17.5548 34.8643 16.0291 34.8561 14.4967V7.3195Z" fill="black"/>
<path fill-rule="evenodd" clip-rule="evenodd" d="M28.2678 11.4187L27.2228 10.521L26.2586 10.6041L15.9036 22.8306L12.3767 17.7956L11.4267 17.6341L10.3271 18.4202L10.1632 19.3702L14.6971 25.8445L15.2125 26.1295L16.2978 26.196L16.8536 25.9537L28.3367 12.3806L28.2678 11.4187Z" fill="black"/>
</g>
<defs>
<clipPath id="clip0_292_266">
<rect width="38" height="38" fill="white" transform="translate(0.25 0.234863)"/>
</clipPath>
</defs>
</svg>
