<svg width="31" height="31" viewBox="0 0 31 31" fill="none" xmlns="http://www.w3.org/2000/svg">
<path d="M7.375 10.9214C7.375 10.0926 7.70424 9.29773 8.29029 8.71168C8.87634 8.12563 9.6712 7.79639 10.5 7.79639C11.3288 7.79639 12.1237 8.12563 12.7097 8.71168C13.2958 9.29773 13.625 10.0926 13.625 10.9214C13.625 11.7502 13.2958 12.545 12.7097 13.1311C12.1237 13.7171 11.3288 14.0464 10.5 14.0464C9.6712 14.0464 8.87634 13.7171 8.29029 13.1311C7.70424 12.545 7.375 11.7502 7.375 10.9214ZM10.5 5.92139C9.17392 5.92139 7.90215 6.44817 6.96447 7.38585C6.02678 8.32353 5.5 9.5953 5.5 10.9214C5.5 12.2475 6.02678 13.5192 6.96447 14.4569C7.90215 15.3946 9.17392 15.9214 10.5 15.9214C11.8261 15.9214 13.0979 15.3946 14.0355 14.4569C14.9732 13.5192 15.5 12.2475 15.5 10.9214C15.5 9.5953 14.9732 8.32353 14.0355 7.38585C13.0979 6.44817 11.8261 5.92139 10.5 5.92139ZM19.875 12.1714C19.875 11.6741 20.0725 11.1972 20.4242 10.8456C20.7758 10.4939 21.2527 10.2964 21.75 10.2964C22.2473 10.2964 22.7242 10.4939 23.0758 10.8456C23.4275 11.1972 23.625 11.6741 23.625 12.1714C23.625 12.6687 23.4275 13.1456 23.0758 13.4972C22.7242 13.8488 22.2473 14.0464 21.75 14.0464C21.2527 14.0464 20.7758 13.8488 20.4242 13.4972C20.0725 13.1456 19.875 12.6687 19.875 12.1714ZM21.75 8.42139C20.7554 8.42139 19.8016 8.81647 19.0983 9.51974C18.3951 10.223 18 11.1768 18 12.1714C18 13.1659 18.3951 14.1198 19.0983 14.823C19.8016 15.5263 20.7554 15.9214 21.75 15.9214C22.7446 15.9214 23.6984 15.5263 24.4017 14.823C25.1049 14.1198 25.5 13.1659 25.5 12.1714C25.5 11.1768 25.1049 10.223 24.4017 9.51974C23.6984 8.81647 22.7446 8.42139 21.75 8.42139ZM18.31 24.7189C19.1887 25.0751 20.315 25.2964 21.7512 25.2964C24.6038 25.2964 26.2338 24.4251 27.1225 23.3489C27.5538 22.8264 27.7725 22.2989 27.885 21.8951C27.9491 21.6612 27.9881 21.4211 28.0012 21.1789V21.1451C28.0012 20.7874 27.9308 20.4333 27.7939 20.1028C27.657 19.7723 27.4564 19.4721 27.2035 19.2192C26.9506 18.9662 26.6503 18.7656 26.3198 18.6287C25.9894 18.4918 25.6352 18.4214 25.2775 18.4214H18.225C18.19 18.4214 18.1562 18.4214 18.1225 18.4239C18.615 18.9364 18.9725 19.5801 19.1425 20.2964H25.2775C25.7425 20.2964 26.12 20.6701 26.1262 21.1326C26.1173 21.2223 26.1006 21.3109 26.0763 21.3976C25.999 21.6756 25.8626 21.9336 25.6763 22.1539C25.2388 22.6864 24.2113 23.4214 21.7512 23.4214C20.5262 23.4214 19.6562 23.2389 19.0387 22.9901C18.9038 23.4901 18.6813 24.0939 18.31 24.7189ZM5.8125 18.4214C5.06658 18.4214 4.35121 18.7177 3.82376 19.2451C3.29632 19.7726 3 20.488 3 21.2339V21.5814C3.00147 21.6683 3.00731 21.7551 3.0175 21.8414C3.12072 22.7715 3.45504 23.661 3.99 24.4289C5.0125 25.8889 6.965 27.1714 10.5 27.1714C14.035 27.1714 15.9875 25.8901 17.01 24.4276C17.5451 23.6599 17.8794 22.7703 17.9825 21.8401C17.9913 21.7541 17.9972 21.6678 18 21.5814V21.2339C18 20.488 17.7037 19.7726 17.1762 19.2451C16.6488 18.7177 15.9334 18.4214 15.1875 18.4214H5.8125ZM4.875 21.5551V21.2339C4.875 20.9852 4.97377 20.7468 5.14959 20.571C5.3254 20.3952 5.56386 20.2964 5.8125 20.2964H15.1875C15.4361 20.2964 15.6746 20.3952 15.8504 20.571C16.0262 20.7468 16.125 20.9852 16.125 21.2339V21.5551L16.1163 21.6551C16.045 22.2652 15.8243 22.8483 15.4738 23.3526C14.8575 24.2339 13.5275 25.2964 10.5 25.2964C7.4725 25.2964 6.1425 24.2339 5.525 23.3526C5.17487 22.8482 4.95461 22.2651 4.88375 21.6551C4.87996 21.6219 4.87704 21.5885 4.875 21.5551Z" fill="black"/>
</svg>
